<svg width="94" height="94" viewBox="0 0 94 94" fill="none" xmlns="http://www.w3.org/2000/svg">
<g clip-path="url(#clip0_701_862)">
<path d="M87.2184 47.2946C87.2184 69.346 69.386 87.1966 47.4201 87.1966C25.4541 87.1966 7.6217 69.346 7.6217 47.2946C7.6217 25.2433 25.4541 7.39258 47.4201 7.39258C69.386 7.39258 87.2184 25.2433 87.2184 47.2946Z" stroke="#0A2640" stroke-width="13.3928"/>
<mask id="mask0_701_862" style="mask-type:alpha" maskUnits="userSpaceOnUse" x="-28" y="-17" width="74" height="122">
<path d="M45.9371 42.9976L27.8008 -16.1593L-27.1025 53.5731L2.08034 104.468L45.9371 42.9976Z" fill="#C4C4C4"/>
</mask>
<g mask="url(#mask0_701_862)">
<path d="M87.2194 47.294C87.2194 69.3454 69.387 87.196 47.421 87.196C25.4551 87.196 7.62268 69.3454 7.62268 47.294C7.62268 25.2426 25.4551 7.39197 47.421 7.39197C69.387 7.39197 87.2194 25.2426 87.2194 47.294Z" stroke="#0DBBFC" stroke-width="13.3928"/>
</g>
<mask id="mask1_701_862" style="mask-type:alpha" maskUnits="userSpaceOnUse" x="21" y="-22" width="92" height="85">
<path d="M52.0756 48.1817L112.072 62.8726L80.3667 -20.0867L21.8037 -21.0402L52.0756 48.1817Z" fill="#C4C4C4"/>
</mask>
<g mask="url(#mask1_701_862)">
<path d="M27.0206 81.5347C8.12844 70.2494 1.92822 45.7627 13.1745 26.8416C24.4208 7.92042 48.8534 1.73235 67.7456 13.0177C86.6378 24.303 92.838 48.7896 81.5917 67.7108C70.3455 86.6319 45.9129 92.82 27.0206 81.5347Z" stroke="#69E6A6" stroke-width="13.3928"/>
</g>
</g>
<defs>
<clipPath id="clip0_701_862">
<rect width="93.0378" height="93.0378" fill="white" transform="translate(0.837158 0.772705)"/>
</clipPath>
</defs>
</svg>
